<svg xmlns="http://www.w3.org/2000/svg">
    <defs>
        <symbol id="bold" viewBox="0 0 26 26">
            <path d="M9.25,16.7237525 C9.35,17.8037525 8.6,18.3237525 7,18.2637525 L7,19.0037525 L14.2,19.0037525 C17.2,18.9037525 18.8,17.7237525 19,15.4737525 C18.9,13.8037525 17.9,12.7437525 16.02,12.3037525 L16.02,12.2337525 C17.57,11.9337525 18.35,11.2037525 18.35,10.0337525 C18.35,9.4337525 18.1,8.8737525 17.62,8.3337525 C16.79,7.4037525 15.1,6.9537525 12.52,7.0037525 C11.95,7.0037525 10.92,7.0537525 9.47,7.1537525 C8.69466878,7.1655272 7.92039223,7.21558818 7.15,7.3037525 L7.15,8.0337525 L7.58,8.0337525 C8.31,8.0337525 8.77,8.1337525 8.96,8.3337525 C9.16,8.4837525 9.26,8.9237525 9.26,9.6537525 L9.26,16.7237525 L9.25,16.7237525 Z M11.8,12.8237525 C12,12.7737525 12.45,12.7437525 13.18,12.7437525 C15.02,12.7937525 15.99,13.7337525 16.09,15.5437525 C16.09,17.2637525 15.22,18.1237525 13.47,18.1237525 C12.31,18.2237525 11.75,17.6537525 11.8,16.4237525 L11.8,12.8237525 Z M11.8,7.8237525 C12.1,7.7637525 12.4,7.7437525 12.75,7.7437525 C14.59,7.7437525 15.53,8.5037525 15.58,10.0237525 C15.53,11.3537525 14.76,12.0137525 13.25,12.0137525 L11.8,12.0137525 L11.8,7.8037525 L11.8,7.8237525 Z"></path>
        </symbol>
        <symbol id="link" viewBox="0 0 26 26">
            <path d="M7.84056,13.81056 L11.97056,9.69056 L14.10056,11.82056 C15.2793269,12.9998375 15.2793269,14.9112825 14.10056,16.09056 L12.11056,18.08056 C10.924564,19.2181887 9.04660249,19.1986455 7.88453849,18.0365815 C6.72247449,16.8745175 6.70293131,14.996556 7.84056,13.81056 Z M12.68056,10.40056 L12.53056,10.55056 C11.7473175,11.335219 11.7473175,12.605901 12.53056,13.39056 L13.24056,14.10056 L12.53056,14.81056 L12.89056,15.17056 L11.82056,14.10056 C10.6417931,12.9212825 10.6417931,11.0098375 11.82056,9.83056 L11.97056,9.69056 L12.67056,10.39056 L12.68056,10.40056 Z M13.24056,15.52056 L11.40056,17.37056 C10.6135542,18.1575658 9.33756577,18.1575658 8.55056,17.37056 C7.76355423,16.5835542 7.76355423,15.3075658 8.55056,14.52056 L10.55056,12.53056 L9.83056,11.82056 L13.81056,7.84056 C14.996556,6.70293131 16.8745175,6.72247449 18.0365815,7.88453849 C19.1986455,9.04660249 19.2181887,10.924564 18.08056,12.11056 L13.95056,16.23056 L13.25056,15.53056 L13.24056,15.52056 Z M12.68056,10.40056 L13.39056,11.10056 L12.68056,11.82056 L13.39056,12.53056 C14.18056,13.32056 14.18056,14.59056 13.39056,15.37056 L13.24056,15.52056 L12.89056,15.17056 L13.95056,16.23056 L16.09056,14.10056 L15.37056,13.39056 L17.37056,11.39056 C18.1548043,10.6035542 18.1525657,9.32980438 17.3655599,8.54556005 C16.5785542,7.76131573 15.3048044,7.76355428 14.52056,8.55056 L12.68056,10.40056 Z"></path>
        </symbol>
        <symbol id="hr" viewBox="0 0 26 26">
            <path d="M7.545,12 L18.455,12 C18.755,12 19,12.2240625 19,12.5 C19,12.7759375 18.7559375,13 18.455,13 L7.545,13 C7.245,13 7,12.7759375 7,12.5 C7,12.2240625 7.2440625,12 7.545,12 Z M7.545,14 L18.455,14 C18.755,14 19,14.2240625 19,14.5 C19,14.7759375 18.7559375,15 18.455,15 L7.545,15 C7.245,15 7,14.7759375 7,14.5 C7,14.2240625 7.2440625,14 7.545,14 Z"></path>
        </symbol>
        <symbol id="admonition" viewBox="0 0 26 26">
            <path d="M6.00000729,13.0000072 C6.00357991,10.4955754 7.34297962,8.18329098 9.51366751,6.93416908 C11.6843554,5.68504717 14.3565523,5.68885915 16.5236676,6.94416908 C18.6907828,8.199479 20.02358,10.5155754 20.0200073,13.0200072 C20.0144844,16.8915233 16.8715233,20.02553 13.0000073,20.0200071 C9.12849123,20.0144843 5.9944845,16.8715233 6.00000729,13.0000072 Z M7.50000729,13.0000072 C7.50179359,14.9667543 8.55269129,16.7831506 10.2568374,17.7649772 C11.9609835,18.7468037 14.0594777,18.7448977 15.7618374,17.7599772 C17.4641972,16.7750566 18.5117936,14.9567543 18.5100073,12.9900072 C18.5072458,9.94967973 16.0403348,7.4872459 13.0000073,7.49000733 C9.95967977,7.49276875 7.49724591,9.95967973 7.50000729,13.0000072 Z M13.0000073,11.5000072 C13.4100073,11.5000072 13.7500073,11.8400072 13.7500073,12.2500072 L13.7500073,15.7500072 C13.7500073,16.1642208 13.4142209,16.5000072 13.0000073,16.5000072 C12.5857937,16.5000072 12.2500073,16.1642208 12.2500073,15.7500072 L12.2500073,12.2500072 C12.2500073,11.8400072 12.5900073,11.5000072 13.0000073,11.5000072 Z M13.0000073,11.0000072 C12.5857937,11.0000072 12.2500073,10.6642208 12.2500073,10.2500072 C12.2500073,9.83579368 12.5857937,9.50000725 13.0000073,9.50000725 C13.2679565,9.50000725 13.5155517,9.64295644 13.6495263,9.87500725 C13.7835009,10.1070581 13.7835009,10.3929564 13.6495263,10.6250072 C13.5155517,10.8570581 13.2679565,11.0000072 13.0000073,11.0000072 Z"></path>
        </symbol>
        <symbol id="quote" viewBox="0 0 26 26">
            <path d="M17.58,9 L17.58,10.14 C17.18,10.34 16.88,10.69 16.69,11.2 C16.4692133,11.8497834 16.3675826,12.5340972 16.39,13.22 L16.39,13.57 L18,13.57 L18,17 L14.25,17 L14.25,14.44 C14.25,12.88 14.53,11.65 15.08,10.74 C15.6333488,9.83592247 16.5400128,9.20488432 17.58,9 Z M11.33,9 L11.33,10.14 C10.93,10.34 10.63,10.69 10.44,11.2 C10.2192133,11.8497834 10.1175826,12.5340972 10.14,13.22 L10.14,13.57 L11.75,13.57 L11.75,17 L8,17 L8,14.44 C8,12.88 8.28,11.65 8.83,10.74 C9.38334876,9.83592247 10.2900128,9.20488432 11.33,9 Z"></path>
        </symbol>
        <symbol id="ol" viewBox="0 0 26 26">
            <path d="M11,8 L20,8 L20,9 L11,9 L11,8 Z M11,13 L20,13 L20,14 L11,14 L11,13 Z M11,18 L20,18 L20,19 L11,19 L11,18 Z M7.14,9.65 L7.14,7.04 L6,7.04 L6,6.69 C6.15,6.69 6.29,6.68 6.43,6.66 C6.57,6.64 6.69,6.6 6.82,6.55 C6.92,6.5 7.02,6.43 7.1,6.34 C7.19,6.24 7.24,6.13 7.26,6 L7.66,6 L7.66,9.65 L7.14,9.65 Z M6.19,11.92 C6.25,11.77 6.34,11.62 6.46,11.51 C6.59,11.39 6.75,11.31 6.91,11.24 C7.11,11.18 7.32,11.14 7.53,11.15 C7.71,11.15 7.89,11.17 8.07,11.22 C8.23,11.26 8.37,11.32 8.51,11.42 C8.76949726,11.5931109 8.92085027,11.8882493 8.91,12.2 C8.91,12.34 8.88,12.49 8.81,12.62 C8.76,12.74 8.68,12.86 8.58,12.95 C8.48,13.05 8.36,13.15 8.24,13.22 L7.84,13.45 C7.56898157,13.57132 7.30520768,13.7082153 7.05,13.86 C6.95,13.93 6.85,14.02 6.76,14.11 C6.68154549,14.1930448 6.62936312,14.2974095 6.61,14.41 L8.86,14.41 L8.86,14.79 L6,14.79 C6.01,14.6 6.06,14.41 6.14,14.24 C6.28033344,13.945923 6.50710952,13.7017026 6.79,13.54 C7.09315977,13.3609121 7.40341134,13.1941102 7.72,13.04 C7.85,12.97 7.96,12.88 8.07,12.79 C8.15561905,12.7172047 8.22684694,12.6290178 8.28,12.53 C8.33,12.43 8.36,12.31 8.35,12.19 C8.35,12.09 8.33,12 8.29,11.92 C8.18930274,11.7488097 8.0232007,11.6260386 7.83,11.58 C7.73,11.55 7.62,11.53 7.5,11.53 C7.36577921,11.5285154 7.23279704,11.5557938 7.11,11.61 C6.90525624,11.7093428 6.75251129,11.891182 6.69,12.11 C6.66,12.21 6.65,12.33 6.65,12.44 L6.12,12.44 C6.11,12.26 6.13,12.09 6.19,11.92 Z M7.22,17.86 L7.4,17.86 C7.60336713,17.8635934 7.80387379,17.8117382 7.98,17.71 C8.05806786,17.6633493 8.12334929,17.5980679 8.17,17.52 C8.2141713,17.4407459 8.23497524,17.3505956 8.23,17.26 C8.23887841,17.0849063 8.15540199,16.9179535 8.01,16.82 C7.84,16.72 7.65,16.67 7.45,16.68 C7.33,16.68 7.2,16.7 7.08,16.74 C6.98,16.78 6.9,16.84 6.82,16.91 C6.75321226,16.9858327 6.70221783,17.0742231 6.67,17.17 C6.64,17.27 6.62,17.37 6.62,17.47 L6.1,17.47 C6.1,17.31 6.14,17.14 6.2,16.99 C6.32079679,16.6966494 6.56663583,16.4728258 6.87,16.38 C7.22833854,16.2778438 7.60662611,16.2675269 7.97,16.35 C8.13,16.38 8.27,16.45 8.41,16.53 C8.66,16.69 8.81,16.97 8.79,17.27 C8.79,17.43 8.73,17.59 8.62,17.71 C8.49789965,17.8372556 8.34699173,17.933288 8.18,17.99 L8.18,18 C8.41,18.03 8.63,18.14 8.78,18.32 C8.91,18.48 8.98,18.68 8.98,18.89 C8.98,19.06 8.94,19.22 8.86,19.37 C8.77,19.51 8.66,19.63 8.53,19.72 C8.38,19.82 8.23,19.89 8.05,19.93 C7.65628346,20.0338819 7.24193061,20.0304289 6.85,19.92 C6.68649343,19.8732678 6.53364979,19.7951477 6.4,19.69 C6.27,19.59 6.17,19.46 6.1,19.32 C6.03,19.16 6,18.99 6,18.81 L6.53,18.81 C6.53,19.03 6.62,19.24 6.78,19.39 C6.97,19.55 7.21,19.63 7.46,19.61 C7.59,19.61 7.71,19.6 7.83,19.57 C7.93,19.54 8.03,19.49 8.13,19.43 C8.21032618,19.3703564 8.27825904,19.2956302 8.33,19.21 C8.39,19.11 8.41,19.01 8.41,18.91 C8.41317335,18.8056121 8.38904472,18.7022037 8.34,18.61 C8.29122593,18.5221995 8.22276853,18.4468964 8.14,18.39 C8.04988259,18.3245617 7.94803905,18.2770348 7.84,18.25 C7.72216194,18.2215673 7.60120528,18.2081277 7.48,18.21 C7.37,18.21 7.26,18.21 7.16,18.23 L7.16,17.85 L7.21,17.86 L7.22,17.86 Z"></path>
        </symbol>
        <symbol id="ul" viewBox="0 0 26 26">
            <path d="M11,8 L20,8 L20,9 L11,9 L11,8 Z M7.5,7 C8.32842712,7 9,7.67157288 9,8.5 C9,9.32842712 8.32842712,10 7.5,10 C6.67157288,10 6,9.32842712 6,8.5 C6,7.67157288 6.67157288,7 7.5,7 Z M11,13 L20,13 L20,14 L11,14 L11,13 Z M7.5,12 C8.32842712,12 9,12.6715729 9,13.5 C9,14.3284271 8.32842712,15 7.5,15 C6.67157288,15 6,14.3284271 6,13.5 C6,12.6715729 6.67157288,12 7.5,12 Z M11,18 L20,18 L20,19 L11,19 L11,18 Z M7.5,17 C8.32842712,17 9,17.6715729 9,18.5 C9,19.3284271 8.32842712,20 7.5,20 C6.67157288,20 6,19.3284271 6,18.5 C6,17.6715729 6.67157288,17 7.5,17 Z"></path>
        </symbol>
        <symbol id="code" viewBox="0 0 26 26">
            <path d="M14.0429286,9.01882798 C14.3029286,9.08882798 14.4729286,9.34882798 14.4029286,9.59882798 L12.5629286,16.668828 C12.5029286,16.918828 12.2329286,17.048828 11.9629286,16.978828 C11.7029286,16.908828 11.5329286,16.648828 11.6029286,16.398828 L13.4429286,9.32882798 C13.5029286,9.07882798 13.7729286,8.94882798 14.0429286,9.01882798 Z M7.20292858,12.998828 L9.67292858,15.468828 C9.84432493,15.6659897 9.83504568,15.9618671 9.65163162,16.1479014 C9.46821756,16.3339357 9.17250153,16.3474106 8.97292858,16.178828 L6.14292858,13.348828 C5.95235714,13.1544062 5.95235714,12.8432497 6.14292858,12.648828 L8.96292858,9.81882798 C9.16009033,9.64743163 9.45596774,9.65671087 9.642002,9.84012494 C9.82803626,10.023539 9.84151121,10.319255 9.67292858,10.518828 L7.21292858,12.998828 L7.20292858,12.998828 Z M18.7829286,12.998828 L16.3129286,10.528828 C16.1694468,10.4076265 16.1059912,10.2162389 16.1486417,10.0333243 C16.1912921,9.85040972 16.3328533,9.70682619 16.5151446,9.66158564 C16.6974359,9.6163451 16.8897042,9.67707972 17.0129286,9.81882798 L19.8429286,12.648828 C20.0335,12.8432497 20.0335,13.1544062 19.8429286,13.348828 L17.0229286,16.178828 C16.9017271,16.3223097 16.7103395,16.3857653 16.5274249,16.3431149 C16.3445103,16.3004645 16.2009268,16.1589032 16.1556862,15.976612 C16.1104457,15.7943207 16.1711803,15.6020524 16.3129286,15.478828 L18.7929286,12.998828 L18.7829286,12.998828 Z"></path>
        </symbol>
        <symbol id="italic" viewBox="0 0 26 26">
            <path d="M12.57,9.19 L10.39,16.89 C10.19,17.79 9.55,18.25 8.46,18.25 L8.2,18.25 L8,19 L14.6,19 L14.82,18.25 L14.49,18.25 C13.34,18.3 12.93,17.82 13.27,16.81 L15.42,9.19 C15.69,8.23 16.37,7.75 17.46,7.75 L17.79,7.75 L18,7 L11.4,7 L11.18,7.75 L11.42,7.75 C12.52,7.7 12.91,8.18 12.57,9.19 Z"></path>
        </symbol>
        <symbol id="line-through" viewBox="0 0 26 26">
            <path d="M17.44,14.5 L20,14.5 L20,16.1 L18.04,16.1 L19.5,20 L17.5,20 L16.14,16.1 L10.82,16.1 L9.37,20 L7.5,20 L9.02,16.1 L7,16.1 L7,14.5 L9.64,14.5 L12.56,7 L14.62,7 L17.44,14.5 Z M11.41,14.5 L15.49,14.5 L13.51,8.93 L11.41,14.5 Z"></path>
        </symbol>
        <symbol id="underline" viewBox="0 0 26 26">
            <path d="M7,18.4 L19,18.4 L19,20 L7,20 L7,18.4 Z M14.82,7.91 L14.42,7.91 L14.42,7 L18.2,7 L18.2,7.91 L17.89,7.91 C17.19,7.88 16.89,8.15 16.92,8.79 L16.92,13.83 C16.88,16.16 15.56,17.36 13.02,17.4 C10.39,17.36 9.02,16.3 8.98,14.23 L8.98,8.57 C9.01,8.07 8.8,7.88 8.26,7.91 L7.8,7.91 L7.8,7 L12.3,7 L12.3,7.91 L11.9,7.91 C11.39,7.91 11.17,8.11 11.17,8.58 L11.17,14.23 C11.21,15.52 11.9,16.15 13.33,16.18 C14.9,16.15 15.67,15.43 15.7,13.98 L15.7,9.03 C15.73,8.23 15.45,7.88 14.82,7.91 Z"></path>
        </symbol>
        <symbol id="color" viewBox="0 0 26 26">
            <path d="M14.35,13.9 L12.75,9.48 L11.03,13.9 L14.35,13.9 Z M11.99,8 L13.61,8 L17.46,18 L15.89,18 L14.81,15 L10.63,15 L9.48,18 L8,18 L12,8 L11.99,8 Z" id="color"></path>
        </symbol>
        <symbol id="table" viewBox="0 0 26 26">
            <path d="M11,11 L11,19 L10,19 L10,11 L7,11 L7,10 L19,10 L19,11 L11,11 Z M8,6 L18,6 C19.1045695,6 20,6.8954305 20,8 L20,18 C20,19.1045695 19.1045695,20 18,20 L8,20 C6.8954305,20 6,19.1045695 6,18 L6,8 C6,6.9 6.9,6 8,6 Z M8,7 C7.44771525,7 7,7.44771525 7,8 L7,18 C7,18.5522847 7.44771525,19 8,19 L18,19 C18.5522847,19 19,18.5522847 19,18 L19,8 C19,7.44771525 18.5522847,7 18,7 L8,7 Z M11,14 L11,13 L19,13 L19,14 L11,14 Z M11,17 L11,16 L19,16 L19,17 L11,17 Z"></path>
        </symbol>
        <symbol id="arrow-down" viewBox="0 0 26 26">
            <polygon points="10 12 16 12 13 15"></polygon>
        </symbol>
        <symbol id="image" viewBox="0 0 26 26">
            <path d="M18,11.96 L18,8.41 C18,8.1890861 17.8209139,8.01 17.6,8.01 L8.4,8.01 C8.1790861,8.01 8,8.1890861 8,8.41 L8,13.98 C9.68,15.33 11.34,15.34 13,14.01 C14.3900874,12.7860509 16.1507988,12.0641593 18,11.96 Z M18,12.93 C17.4360001,12.9009127 16.8711817,12.9685556 16.33,13.13 C15.33,13.47 14.28,14.13 13.28,14.91 C12.1987524,15.8174098 10.7389306,16.1318329 9.38,15.75 C9.03,15.65 8.57,15.39 8,14.98 L8,17.61 C8,17.83 8.18,18.01 8.4,18.01 L17.6,18.01 C17.8209139,18.01 18,17.8309139 18,17.61 L18,12.93 Z M17.75,7.01 C18.2,7.01 18.52,7.14 18.71,7.39 C18.91,7.64 19,7.97 19,8.39 L19,17.96 C18.9861441,18.2333753 18.8680455,18.491045 18.67,18.68 C18.57,18.78 18.45,18.85 18.32,18.92 C18.19,18.98 18.04,19.01 17.88,19.01 L8.04,19.01 C7.76048593,19.0103159 7.49442159,18.8900402 7.31,18.68 C7.11,18.45 7,18.18 7,17.88 L7,8.11 C7,7.79 7.09,7.52 7.27,7.31 C7.44,7.11 7.68,7 7.97,7 L17.75,7 L17.75,7.01 Z M10.38,8.96 C10.880208,8.96260189 11.3315088,9.26085286 11.53,9.72 C11.6,9.87 11.63,10.02 11.63,10.2 C11.63,10.54 11.51,10.84 11.26,11.08 C11.02,11.32 10.72,11.44 10.38,11.44 C10.21,11.44 10.05,11.41 9.9,11.34 C9.74982157,11.2825146 9.61350369,11.193908 9.5,11.08 C9.39108648,10.962524 9.30314323,10.8272267 9.24,10.68 C9.17,10.54 9.14,10.38 9.14,10.2 C9.15151567,9.70498922 9.44749607,9.26101861 9.9,9.06 C10.05,8.99 10.2,8.96 10.38,8.96 Z"></path>
        </symbol>
    </defs>
</svg>